<?xml version="1.0" encoding="utf-8"?>
<!-- Generator: Adobe Illustrator 16.0.0, SVG Export Plug-In . SVG Version: 6.00 Build 0)  -->
<!DOCTYPE svg PUBLIC "-//W3C//DTD SVG 1.1//EN" "http://www.w3.org/Graphics/SVG/1.1/DTD/svg11.dtd">
<svg version="1.1" id="controls.fw-Page_x25_201" xmlns="http://www.w3.org/2000/svg" xmlns:xlink="http://www.w3.org/1999/xlink"
	 x="0px" y="0px" width="144px" height="50px" viewBox="0 0 144 50" enable-background="new 0 0 144 50" xml:space="preserve">
<path fill="none" d="z"/>
<g id="BG">
</g>
<g id="controls">
	<path id="Line" fill="none" stroke="#FFFFFF" d="M128.5,7.5h11"/>
	<path id="Line2" fill="none" stroke="#FFFFFF" d="M128.5,3.5h11"/>
	<path id="Line3" fill="none" stroke="#FFFFFF" d="M128.5,11.5h11"/>
	<path id="Ellipse" fill="#FFFFFF" d="M138,11.5c0-0.828,0.447-1.5,1-1.5s1,0.672,1,1.5s-0.447,1.5-1,1.5S138,12.328,138,11.5z"/>
	<path id="Ellipse2" fill="#FFFFFF" d="M134,7.5c0-0.829,0.447-1.5,1-1.5s1,0.671,1,1.5c0,0.828-0.447,1.5-1,1.5S134,8.328,134,7.5z
		"/>
	<path id="Ellipse3" fill="#FFFFFF" d="M138,3.5c0-0.829,0.447-1.5,1-1.5s1,0.671,1,1.5S139.553,5,139,5S138,4.329,138,3.5z"/>
</g>
<g id="backlight">
	<g id="off">
		<rect x="113" y="21" fill="#333333" stroke="#FFFFFF" width="10" height="6"/>
	</g>
	<g id="on">
		
			<radialGradient id="Ellipse4_1_" cx="-214.1782" cy="374.0508" r="0.5" gradientTransform="matrix(14 0 0 -10 3116.5 3748.5)" gradientUnits="userSpaceOnUse">
			<stop  offset="0" style="stop-color:#FFFFFF"/>
			<stop  offset="1" style="stop-color:#F2F2F2;stop-opacity:0.2"/>
		</radialGradient>
		<path id="Ellipse4" fill="url(#Ellipse4_1_)" d="M111,8c0-2.762,3.134-5,7-5s7,2.238,7,5s-3.134,5-7,5S111,10.762,111,8z"/>
		<rect x="113" y="5" fill="#333333" stroke="#FFFFFF" width="10" height="6"/>
	</g>
</g>
<g id="loop">
	<g id="on2">
		
			<linearGradient id="SVGID_1_" gradientUnits="userSpaceOnUse" x1="-211.0415" y1="378.4668" x2="-211.0415" y2="375.8915" gradientTransform="matrix(12 0 0 -11.125 2634.5 4212.4375)">
			<stop  offset="0" style="stop-color:#FFFFFF"/>
			<stop  offset="1" style="stop-color:#C8C8C8"/>
		</linearGradient>
		<path fill="url(#SVGID_1_)" d="M103.795,4.205C105.215,4.878,106.2,6.323,106.2,8c0,2.319-1.88,4.2-4.2,4.2s-4.2-1.881-4.2-4.2
			c0-1.677,0.985-3.122,2.405-3.795l-1.33-1.33C97.15,3.929,96,5.831,96,8c0,3.314,2.686,6,6,6s6-2.686,6-6
			c0-2.169-1.15-4.071-2.875-5.125L103.795,4.205z"/>
		
			<linearGradient id="SVGID_2_" gradientUnits="userSpaceOnUse" x1="-180.2998" y1="336.6006" x2="-180.2998" y2="334.2131" gradientTransform="matrix(5 0 0 -5 1000 1685)">
			<stop  offset="0" style="stop-color:#FFFFFF"/>
			<stop  offset="1" style="stop-color:#C8C8C8"/>
		</linearGradient>
		<path fill="url(#SVGID_2_)" d="M101,2h-5l5,5V2z"/>
	</g>
	<g id="off2">
		<path fill="#A8A8B7" d="M103.795,20.205c1.42,0.674,2.405,2.118,2.405,3.795c0,2.319-1.88,4.2-4.2,4.2s-4.2-1.881-4.2-4.2
			c0-1.677,0.985-3.121,2.405-3.795l-1.33-1.33C97.15,19.929,96,21.83,96,24c0,3.314,2.686,6,6,6s6-2.686,6-6
			c0-2.17-1.15-4.071-2.875-5.125L103.795,20.205z"/>
		<path fill="#A8A8B7" d="M101,18h-5l5,5V18z"/>
	</g>
</g>
<g id="cc">
	<rect x="79" y="2" display="none" fill="none" stroke="#B0B0B0" width="14" height="12"/>
	<text transform="matrix(1 0 0 1 79 17)" fill="#FFFFFF" font-family="'ArialMT'" font-size="10">cc</text>
	<path fill="none" stroke="#FFFFFF" d="M85,7c-4.719-3.219-4.938,5.94,0,3"/>
	<path fill="none" stroke="#FFFFFF" d="M90,7c-4.719-3.219-4.938,5.94,0,3"/>
	
		<linearGradient id="SVGID_3_" gradientUnits="userSpaceOnUse" x1="-214.1782" y1="380.876" x2="-214.1782" y2="379.876" gradientTransform="matrix(14 0 0 -12 3084.5 4572.5)">
		<stop  offset="0" style="stop-color:#FFFFFF"/>
		<stop  offset="1" style="stop-color:#C8C8C8"/>
	</linearGradient>
	<path fill="url(#SVGID_3_)" d="M80,3h12v10H80V3z M79,2v12h14V2H79z"/>
	<rect x="79" y="2" fill="none" width="14" height="12"/>
</g>
<g id="volume">
	<g id="no_x25_20sound">
		
			<linearGradient id="SVGID_4_" gradientUnits="userSpaceOnUse" x1="-180.3003" y1="349.583" x2="-180.3003" y2="347.7289" gradientTransform="matrix(5 0 0 -6 951 2100.5)">
			<stop  offset="0" style="stop-color:#FFFFFF"/>
			<stop  offset="1" style="stop-color:#C8C8C8"/>
		</linearGradient>
		<rect x="47" y="5" fill="url(#SVGID_4_)" width="5" height="6"/>
		
			<linearGradient id="SVGID_5_" gradientUnits="userSpaceOnUse" x1="-167.125" y1="380.876" x2="-167.125" y2="379.876" gradientTransform="matrix(4 0 0 -12 721.5 4572.5)">
			<stop  offset="0" style="stop-color:#FFFFFF"/>
			<stop  offset="1" style="stop-color:#C8C8C8"/>
		</linearGradient>
		<path fill="url(#SVGID_5_)" d="M51,5l4-3v12l-4-2.938V5z"/>
	</g>
	<g id="sound_x25_20bars">
		
			<linearGradient id="SVGID_6_" gradientUnits="userSpaceOnUse" x1="-180.3003" y1="349.583" x2="-180.3003" y2="347.7289" gradientTransform="matrix(5 0 0 -6 951 2116.5)">
			<stop  offset="0" style="stop-color:#FFFFFF"/>
			<stop  offset="1" style="stop-color:#C8C8C8"/>
		</linearGradient>
		<rect x="47" y="21" fill="url(#SVGID_6_)" width="5" height="6"/>
		
			<linearGradient id="SVGID_7_" gradientUnits="userSpaceOnUse" x1="-167.125" y1="380.875" x2="-167.125" y2="379.875" gradientTransform="matrix(4 0 0 -12 721.5 4588.5)">
			<stop  offset="0" style="stop-color:#FFFFFF"/>
			<stop  offset="1" style="stop-color:#C8C8C8"/>
		</linearGradient>
		<path fill="url(#SVGID_7_)" d="M51,21l4-3v12l-4-2.938V21z"/>
		<path fill="none" stroke="#FFFFFF" d="M57,18c0,0,3.062-0.625,3,6s-3,6-3,6"/>
		<path fill="none" stroke="#FFFFFF" d="M56,21.008c0,0,2.041-0.312,2,2.992c-0.042,3.304-2,2.992-2,2.992"/>
	</g>
</g>
<g id="fullscreen">
	<g id="enter_x25_201">
		
			<linearGradient id="SVGID_8_" gradientUnits="userSpaceOnUse" x1="-180.2998" y1="336.6006" x2="-180.2998" y2="334.2131" gradientTransform="matrix(5 0 0 -5 968 1685)">
			<stop  offset="0" style="stop-color:#FFFFFF"/>
			<stop  offset="1" style="stop-color:#C8C8C8"/>
		</linearGradient>
		<path fill="url(#SVGID_8_)" d="M64,2h5l-5,5V2z"/>
		
			<linearGradient id="SVGID_9_" gradientUnits="userSpaceOnUse" x1="-180.2998" y1="338" x2="-180.2998" y2="335.6125" gradientTransform="matrix(5 0 0 -5 968 1692)">
			<stop  offset="0" style="stop-color:#FFFFFF"/>
			<stop  offset="1" style="stop-color:#C8C8C8"/>
		</linearGradient>
		<path fill="url(#SVGID_9_)" d="M64,14h5l-5-5V14z"/>
		
			<linearGradient id="SVGID_10_" gradientUnits="userSpaceOnUse" x1="-180.2998" y1="336.6006" x2="-180.2998" y2="334.2131" gradientTransform="matrix(5 0 0 -5 975 1685)">
			<stop  offset="0" style="stop-color:#FFFFFF"/>
			<stop  offset="1" style="stop-color:#C8C8C8"/>
		</linearGradient>
		<path fill="url(#SVGID_10_)" d="M76,2h-5l5,5V2z"/>
		
			<linearGradient id="SVGID_11_" gradientUnits="userSpaceOnUse" x1="-180.2998" y1="338" x2="-180.2998" y2="335.6125" gradientTransform="matrix(5 0 0 -5 975 1692)">
			<stop  offset="0" style="stop-color:#FFFFFF"/>
			<stop  offset="1" style="stop-color:#C8C8C8"/>
		</linearGradient>
		<path fill="url(#SVGID_11_)" d="M76,14h-5l5-5V14z"/>
	</g>
	<g id="exit">
		
			<linearGradient id="SVGID_12_" gradientUnits="userSpaceOnUse" x1="-167.125" y1="317.625" x2="-167.125" y2="314.6406" gradientTransform="matrix(4 0 0 -4 742.5 1288.5)">
			<stop  offset="0" style="stop-color:#FFFFFF"/>
			<stop  offset="1" style="stop-color:#C8C8C8"/>
		</linearGradient>
		<path fill="url(#SVGID_12_)" d="M72,22h4l-4-4V22z"/>
		
			<linearGradient id="SVGID_13_" gradientUnits="userSpaceOnUse" x1="-167.125" y1="317.625" x2="-167.125" y2="315.2375" gradientTransform="matrix(4 0 0 -4 734.5 1288.5)">
			<stop  offset="0" style="stop-color:#FFFFFF"/>
			<stop  offset="1" style="stop-color:#C8C8C8"/>
		</linearGradient>
		<path fill="url(#SVGID_13_)" d="M68,22v-4l-4,4H68z"/>
		
			<linearGradient id="SVGID_14_" gradientUnits="userSpaceOnUse" x1="-167.125" y1="319.625" x2="-167.125" y2="316.625" gradientTransform="matrix(4 0 0 -4 734.5 1296.5)">
			<stop  offset="0" style="stop-color:#FFFFFF"/>
			<stop  offset="1" style="stop-color:#C8C8C8"/>
		</linearGradient>
		<path fill="url(#SVGID_14_)" d="M68,26h-4l4,4V26z"/>
		
			<linearGradient id="SVGID_15_" gradientUnits="userSpaceOnUse" x1="-167.125" y1="319.625" x2="-167.125" y2="316.5156" gradientTransform="matrix(4 0 0 -4 742.5 1296.5)">
			<stop  offset="0" style="stop-color:#FFFFFF"/>
			<stop  offset="1" style="stop-color:#C8C8C8"/>
		</linearGradient>
		<path fill="url(#SVGID_15_)" d="M72,26v4l4-4H72z"/>
	</g>
</g>
<g id="stop">
	
		<linearGradient id="SVGID_16_" gradientUnits="userSpaceOnUse" x1="-206.6499" y1="374.5508" x2="-206.6499" y2="373.5508" gradientTransform="matrix(10 0 0 -10 2216.5 3748.5)">
		<stop  offset="0" style="stop-color:#FFFFFF"/>
		<stop  offset="1" style="stop-color:#C8C8C8"/>
	</linearGradient>
	<rect x="145" y="3" fill="url(#SVGID_16_)" width="10" height="10"/>
</g>
<g id="chooser">
	
		<linearGradient id="SVGID_17_" gradientUnits="userSpaceOnUse" x1="-215.2632" y1="383.6719" x2="-215.2632" y2="382.6719" gradientTransform="matrix(13.1648 0 0 -13.1648 2969.8936 5052.3945)">
		<stop  offset="0" style="stop-color:#FFFFFF"/>
		<stop  offset="0.9944" style="stop-color:#C8C8C8"/>
	</linearGradient>
	<path fill="url(#SVGID_17_)" d="M135.234,6.152c1.021-0.423,2.191,0.062,2.613,1.082c0.423,1.021-0.062,2.19-1.082,2.613
		s-2.191-0.062-2.613-1.082C133.729,7.745,134.214,6.575,135.234,6.152z M133.273,1.417L136,4.005l2.727-2.588l0.098,3.758
		l3.758,0.098L139.994,8l2.588,2.727l-3.758,0.098l-0.098,3.758L136,11.995l-2.727,2.588l-0.098-3.758l-3.758-0.098L132.006,8
		l-2.588-2.727l3.758-0.098L133.273,1.417z"/>
</g>
<path fill="none" d="z"/>
<path fill="#FFFFFF" d="M6.603,21.715l12.733-7.146c1.981-1.111,1.982-2.933,0.002-4.047L6.6,3.352C4.62,2.238,3,3.141,3,5.358
	v14.345C3,21.922,4.621,22.826,6.603,21.715z"/>
<path fill="#FFFFFF" d="M7.948,43.75c0,1.366-1.107,2.474-2.474,2.474l0,0C4.107,46.224,3,45.116,3,43.75V29.952
	c0-1.366,1.107-2.474,2.474-2.474l0,0c1.367,0,2.474,1.107,2.474,2.474V43.75z"/>
<path fill="#FFFFFF" d="M15.721,43.75c0,1.366-1.107,2.474-2.474,2.474l0,0c-1.366,0-2.474-1.107-2.474-2.474V29.952
	c0-1.366,1.107-2.474,2.474-2.474l0,0c1.367,0,2.474,1.107,2.474,2.474V43.75z"/>
</svg>
